<mxfile host="app.diagrams.net" modified="2024-03-01T02:25:16.577Z" agent="Mozilla/5.0 (Macintosh; Intel Mac OS X 10_15_7) AppleWebKit/605.1.15 (KHTML, like Gecko) Version/17.2.1 Safari/605.1.15" version="24.0.0" etag="j8mbjTYB08Xvi8cQ9GIU" type="github">
  <diagram name="Page-1" id="u3LGIdhDIlnGeIjmWXk5">
    <mxGraphModel>
      <root>
        <mxCell id="0" />
        <mxCell id="1" parent="0" />
      </root>
    </mxGraphModel>
  </diagram>
</mxfile>
